<svg xmlns="http://www.w3.org/2000/svg" xmlns:xlink="http://www.w3.org/1999/xlink" width="500" zoomAndPan="magnify" viewBox="0 0 375 374.999991" height="500" preserveAspectRatio="xMidYMid meet" version="1.2"><defs><clipPath id="3cf34053fa"><path d="M 92.425781 75.121094 L 279.371094 75.121094 L 279.371094 292.734375 L 92.425781 292.734375 Z M 92.425781 75.121094 "/></clipPath><clipPath id="9b0934933b"><path d="M 185.898438 75.121094 L 279.371094 129.503906 L 279.371094 238.273438 L 185.898438 292.65625 L 92.425781 238.273438 L 92.425781 129.503906 Z M 185.898438 75.121094 "/></clipPath><clipPath id="5dbba9cab5"><path d="M 92.390625 130.140625 L 185.859375 130.140625 L 185.859375 293.351562 L 92.390625 293.351562 Z M 92.390625 130.140625 "/></clipPath><clipPath id="53ace075a3"><path d="M 185.859375 185.0625 L 185.859375 293.296875 L 92.390625 238.371094 L 92.390625 130.140625 Z M 185.859375 185.0625 "/></clipPath><clipPath id="819f4dd2ba"><path d="M 92.425781 75.121094 L 279.371094 75.121094 L 279.371094 183.886719 L 92.425781 183.886719 Z M 92.425781 75.121094 "/></clipPath><clipPath id="193cd4ea54"><path d="M 185.898438 75.121094 L 279.371094 129.503906 L 185.898438 183.886719 L 92.425781 129.503906 Z M 185.898438 75.121094 "/></clipPath><clipPath id="c200d764c8"><path d="M 223 149 L 241 149 L 241 184 L 223 184 Z M 223 149 "/></clipPath><clipPath id="9bbd1d36a8"><path d="M 239.722656 149.402344 L 240.742188 183.378906 L 224.082031 183.878906 L 223.058594 149.902344 Z M 239.722656 149.402344 "/></clipPath><clipPath id="3abd24a2ea"><path d="M 239.984375 158.148438 L 240.742188 183.378906 L 223.816406 175.128906 L 223.058594 149.902344 Z M 239.984375 158.148438 "/></clipPath><clipPath id="86096209de"><path d="M 224.109375 142.78125 L 240.777344 142.78125 L 240.777344 176.773438 L 224.109375 176.773438 Z M 224.109375 142.78125 "/></clipPath><clipPath id="c3d971e20d"><path d="M 224.109375 168.019531 L 224.109375 142.78125 L 240.777344 151.53125 L 240.777344 176.773438 Z M 224.109375 168.019531 "/></clipPath><clipPath id="326b98b1ef"><path d="M 223 142 L 234 142 L 234 190 L 223 190 Z M 223 142 "/></clipPath><clipPath id="f16915b694"><path d="M 224.195312 189.984375 L 223.082031 142.992188 L 232.402344 142.773438 L 233.515625 189.761719 Z M 224.195312 189.984375 "/></clipPath><clipPath id="f02e7616cd"><path d="M 223.320312 153.046875 L 224.195312 189.984375 L 233.277344 179.722656 L 232.402344 142.789062 Z M 223.320312 153.046875 "/></clipPath><clipPath id="6f83d184d3"><path d="M 134 95 L 241 95 L 241 162 L 134 162 Z M 134 95 "/></clipPath><clipPath id="215af39d26"><path d="M 231.855469 166.605469 L 134.191406 105.152344 L 143.070312 91.042969 L 240.734375 152.496094 Z M 231.855469 166.605469 "/></clipPath><clipPath id="d310bd8d60"><path d="M 224.449219 161.945312 L 134.199219 105.15625 L 150.484375 95.707031 L 240.734375 152.496094 Z M 224.449219 161.945312 "/></clipPath><clipPath id="d656d23b4f"><path d="M 223 116 L 243 116 L 243 152 L 223 152 Z M 223 116 "/></clipPath><clipPath id="ce08f73918"><path d="M 223.085938 150.574219 L 224.808594 116.617188 L 242.550781 117.519531 L 240.828125 151.476562 Z M 223.085938 150.574219 "/></clipPath><clipPath id="6b49717b26"><path d="M 223.527344 141.835938 L 224.808594 116.628906 L 242.105469 126.269531 L 240.828125 151.476562 Z M 223.527344 141.835938 "/></clipPath><clipPath id="b41d775b21"><path d="M 85.140625 156 L 289 156 L 289 300 L 85.140625 300 Z M 85.140625 156 "/></clipPath><clipPath id="cf4167f02e"><path d="M 98 215 L 211 215 L 211 296 L 98 296 Z M 98 215 "/></clipPath><clipPath id="70c239e74e"><path d="M 97.222656 216.777344 L 210.464844 214.742188 L 211.921875 295.628906 L 98.679688 297.664062 Z M 97.222656 216.777344 "/></clipPath><clipPath id="a2a37891da"><path d="M 97.222656 216.777344 L 210.464844 214.742188 L 211.921875 295.628906 L 98.679688 297.664062 Z M 97.222656 216.777344 "/></clipPath><clipPath id="8617d704bc"><path d="M 85.140625 152 L 289 152 L 289 295 L 85.140625 295 Z M 85.140625 152 "/></clipPath><clipPath id="4583e31fc6"><path d="M 99 216.394531 L 209 216.394531 L 209 294.058594 L 99 294.058594 Z M 99 216.394531 "/></clipPath></defs><g id="3512a3e3c5"><g clip-rule="nonzero" clip-path="url(#3cf34053fa)"><g clip-rule="nonzero" clip-path="url(#9b0934933b)"><path style=" stroke:none;fill-rule:nonzero;fill:#cf9f56;fill-opacity:1;" d="M 92.425781 75.121094 L 279.371094 75.121094 L 279.371094 292.734375 L 92.425781 292.734375 Z M 92.425781 75.121094 "/></g></g><g clip-rule="nonzero" clip-path="url(#5dbba9cab5)"><g clip-rule="nonzero" clip-path="url(#53ace075a3)"><path style=" stroke:none;fill-rule:nonzero;fill:#dfb678;fill-opacity:1;" d="M 185.859375 130.140625 L 185.859375 293.351562 L 92.390625 293.351562 L 92.390625 130.140625 Z M 185.859375 130.140625 "/></g></g><g clip-rule="nonzero" clip-path="url(#819f4dd2ba)"><g clip-rule="nonzero" clip-path="url(#193cd4ea54)"><path style=" stroke:none;fill-rule:nonzero;fill:#eac387;fill-opacity:1;" d="M 92.425781 75.121094 L 279.371094 75.121094 L 279.371094 183.886719 L 92.425781 183.886719 Z M 92.425781 75.121094 "/></g></g><g clip-rule="nonzero" clip-path="url(#c200d764c8)"><g clip-rule="nonzero" clip-path="url(#9bbd1d36a8)"><g clip-rule="nonzero" clip-path="url(#3abd24a2ea)"><path style=" stroke:none;fill-rule:nonzero;fill:#f8e1c0;fill-opacity:1;" d="M 239.722656 149.402344 L 240.742188 183.378906 L 224.082031 183.878906 L 223.058594 149.902344 Z M 239.722656 149.402344 "/></g></g></g><g clip-rule="nonzero" clip-path="url(#86096209de)"><g clip-rule="nonzero" clip-path="url(#c3d971e20d)"><path style=" stroke:none;fill-rule:nonzero;fill:#f8e1c0;fill-opacity:1;" d="M 224.109375 176.773438 L 224.109375 142.78125 L 240.777344 142.78125 L 240.777344 176.773438 Z M 224.109375 176.773438 "/></g></g><g clip-rule="nonzero" clip-path="url(#326b98b1ef)"><g clip-rule="nonzero" clip-path="url(#f16915b694)"><g clip-rule="nonzero" clip-path="url(#f02e7616cd)"><path style=" stroke:none;fill-rule:nonzero;fill:#f8e1c0;fill-opacity:1;" d="M 224.195312 189.984375 L 223.082031 142.992188 L 232.402344 142.773438 L 233.515625 189.761719 Z M 224.195312 189.984375 "/></g></g></g><g clip-rule="nonzero" clip-path="url(#6f83d184d3)"><g clip-rule="nonzero" clip-path="url(#215af39d26)"><g clip-rule="nonzero" clip-path="url(#d310bd8d60)"><path style=" stroke:none;fill-rule:nonzero;fill:#ffeed5;fill-opacity:1;" d="M 231.855469 166.605469 L 134.191406 105.152344 L 143.070312 91.042969 L 240.734375 152.496094 Z M 231.855469 166.605469 "/></g></g></g><g clip-rule="nonzero" clip-path="url(#d656d23b4f)"><g clip-rule="nonzero" clip-path="url(#ce08f73918)"><g clip-rule="nonzero" clip-path="url(#6b49717b26)"><path style=" stroke:none;fill-rule:nonzero;fill:#eac387;fill-opacity:1;" d="M 223.085938 150.574219 L 224.808594 116.617188 L 242.550781 117.519531 L 240.828125 151.476562 Z M 223.085938 150.574219 "/></g></g></g><path style="fill:none;stroke-width:1;stroke-linecap:butt;stroke-linejoin:miter;stroke:#dcdcdc;stroke-opacity:1;stroke-miterlimit:4;" d="M 0.000103225 0.499556 L 32.817466 0.499605 " transform="matrix(2.742572,1.717599,-1.717599,2.742572,143.232753,99.110223)"/><g clip-rule="nonzero" clip-path="url(#b41d775b21)"><path style=" stroke:none;fill-rule:nonzero;fill:#6b6767;fill-opacity:1;" d="M 285.980469 169.839844 C 289.011719 166.808594 289.011719 161.894531 285.980469 158.863281 C 282.949219 155.835938 278.035156 155.835938 275.003906 158.863281 L 156.53125 253.757812 L 99.148438 219.941406 C 96.117188 216.910156 91.203125 216.910156 88.171875 219.941406 C 85.140625 222.972656 85.140625 227.886719 88.171875 230.917969 L 156.53125 299.269531 Z M 285.980469 169.839844 "/></g><g clip-rule="nonzero" clip-path="url(#cf4167f02e)"><g clip-rule="nonzero" clip-path="url(#70c239e74e)"><g clip-rule="nonzero" clip-path="url(#a2a37891da)"><path style=" stroke:none;fill-rule:nonzero;fill:#6b6767;fill-opacity:1;" d="M 208.925781 222.558594 C 210.578125 220.84375 210.527344 218.113281 208.8125 216.460938 C 207.101562 214.808594 204.371094 214.859375 202.71875 216.570312 L 137.855469 270.464844 L 105.644531 252.253906 C 103.929688 250.601562 101.199219 250.648438 99.546875 252.363281 C 97.894531 254.078125 97.941406 256.804688 99.65625 258.460938 L 138.3125 295.742188 Z M 208.925781 222.558594 "/></g></g></g><g clip-rule="nonzero" clip-path="url(#8617d704bc)"><path style=" stroke:none;fill-rule:nonzero;fill:#587efb;fill-opacity:1;" d="M 285.980469 165.519531 C 289.011719 162.488281 289.011719 157.574219 285.980469 154.542969 C 282.949219 151.515625 278.035156 151.515625 275.003906 154.542969 L 156.53125 249.4375 L 99.148438 215.621094 C 96.117188 212.589844 91.203125 212.589844 88.171875 215.621094 C 85.140625 218.652344 85.140625 223.566406 88.171875 226.597656 L 156.53125 294.949219 Z M 285.980469 165.519531 "/></g><g clip-rule="nonzero" clip-path="url(#4583e31fc6)"><path style=" stroke:none;fill-rule:nonzero;fill:#a4e473;fill-opacity:1;" d="M 207.589844 223.984375 C 209.230469 222.34375 209.230469 219.683594 207.589844 218.039062 C 205.949219 216.398438 203.289062 216.398438 201.644531 218.039062 L 137.507812 269.414062 L 106.445312 251.105469 C 104.804688 249.464844 102.140625 249.464844 100.5 251.105469 C 98.859375 252.746094 98.859375 255.40625 100.5 257.046875 L 137.507812 294.050781 Z M 207.589844 223.984375 "/></g></g></svg>